# xmcd
#
# Track frame offsets: 
#        150
#        15677
#        36924
#        56887
#        73115
#
# Disc length: 1269 seconds
#
# Revision: 0
# Processed by: cddbd v1.5.2PL0 Copyright (c) Steve Scherf et al.
# Submitted via: ExactAudioCopyFreeDBPlugin 1.0
#
DISCID=4404f305
DTITLE=Count This Penny - Wolves AreSheep (EP)
DYEAR=2014
DGENRE=Country
TTITLE0=Shoebox Scene
TTITLE1=Get Your Gun
TTITLE2=Birds
TTITLE3=Brand New Shine
TTITLE4=High-Lonesome
EXTD=
EXTT0=
EXTT1=
EXTT2=
EXTT3=
EXTT4=
PLAYORDER=
